<?xml version="1.0" encoding="utf-8"?>
<!-- Generator: Adobe Illustrator 25.2.3, SVG Export Plug-In . SVG Version: 6.00 Build 0)  -->
<svg version="1.1" id="Ebene_1" xmlns="http://www.w3.org/2000/svg" xmlns:xlink="http://www.w3.org/1999/xlink" x="0px" y="0px"
	 viewBox="90 100 134.5 128.3" style="enable-background:new 0 0 294.5 288.3;" xml:space="preserve">
<style type="text/css">
	.st0{fill:#878787;}
	.st1{fill:#9D9D9C;}
	.st2{fill-rule:evenodd;clip-rule:evenodd;}
	.st3{fill:#286EF5;}
	.st4{fill-rule:evenodd;clip-rule:evenodd;fill:#FFFFFF;}
	.st5{fill:#FFFFFF;}
	.st6{fill-rule:evenodd;clip-rule:evenodd;fill:#030044;}
</style>
<g>
	<path class="st3" d="M157.6,96.6h-42.9c-11.8,0-18.3,6.6-18.3,18.3v22.3c0,3,1.6,4.6,4.6,4.6h7.3c3,0,4.6-1.6,4.6-4.6v-22.3
		c0-1.2,0.7-1.9,1.9-1.9h42.9c3,0,4.6-1.6,4.6-4.6l0-7.3C162.2,98.2,160.6,96.6,157.6,96.6z"/>
	<path class="st3" d="M198.5,188.1c0,3-1.6,4.6-4.6,4.6h-7.3c-3,0-4.6-1.6-4.6-4.6V181c0-3,1.6-4.6,4.6-4.6h7.3c3,0,4.6,1.6,4.6,4.6
		V188.1z"/>
	<path class="st4" d="M171.2,175.1c0,11.4-6.2,17.5-17.5,17.5h-25.2c-1.4,0-2.2-0.8-2.2-2.2v-63.2c0-1.4,0.8-2.2,2.2-2.2l8.3,0
		c1.4,0,2.2,0.8,2.2,2.2v14.4h14.7c11.4,0,17.5,6.2,17.5,17.5V175.1z M152.1,181.4c4.1,0,6.3-2.2,6.3-6.3v-16c0-4.1-2.2-6.3-6.3-6.3
		l-13.1,0v28.6H152.1z"/>
</g>
</svg>
